<svg width="24" height="24" viewBox="0 0 24 24" fill="none" xmlns="http://www.w3.org/2000/svg">
  <rect width="24" height="24" rx="6" fill="#4338ca"/>
  <path d="M19.071 14.242C19.0243 14.3697 18.9065 14.4627 18.7697 14.4878L16.3351 14.9454C16.1983 14.9705 16.0599 14.9237 15.9697 14.8229L11.3594 9.65738C11.2693 9.55653 11.2371 9.41452 11.2743 9.28685C11.3115 9.15917 11.4131 9.06322 11.5405 9.03817L13.9751 8.58054C14.1119 8.55549 14.2503 8.60231 14.3404 8.70315L18.9508 13.8686C19.0409 13.9695 19.0731 14.1115 19.0359 14.2392L19.071 14.242Z" fill="white"/>
  <path d="M14.4527 15.6775C14.4996 15.5498 14.6174 15.4568 14.7541 15.4317L17.1887 14.9741C17.3255 14.949 17.4639 14.9958 17.5541 15.0967L20.1726 17.9763C20.2628 18.0771 20.295 18.2191 20.2578 18.3468C20.2206 18.4745 20.119 18.5704 19.9915 18.5955L17.557 19.0531C17.4202 19.0782 17.2818 19.0313 17.1916 18.9305L14.5731 16.0509C14.483 15.95 14.4508 15.808 14.488 15.6803L14.4527 15.6775Z" fill="white"/>
  <path d="M9.54708 9.32227C9.50034 9.44995 9.38256 9.54295 9.24578 9.568L6.81119 10.0256C6.67441 10.0507 6.53603 10.0039 6.44584 9.9031L3.82738 7.02345C3.7372 6.9226 3.70499 6.78059 3.74217 6.65292C3.77936 6.52524 3.88114 6.42929 4.00854 6.40424L6.44313 5.94661C6.57991 5.92156 6.71829 5.96838 6.80848 6.06923L9.42694 8.94888C9.51712 9.04972 9.5493 9.1918 9.51209 9.31947L9.54708 9.32227Z" fill="white"/>
  <path d="M4.92962 11.7526C4.88288 11.8803 4.76509 11.9732 4.62831 11.9983L3.78873 12.1552C3.65195 12.1802 3.51357 12.1334 3.42338 12.0326L3.05728 11.6331C2.9671 11.5323 2.93489 11.3903 2.97207 11.2626C3.00926 11.1349 3.11104 11.039 3.23844 11.0139L4.07803 10.857C4.21481 10.832 4.35319 10.8788 4.44337 10.9796L4.80947 11.3792C4.89965 11.48 4.93186 11.6221 4.89465 11.7497L4.92962 11.7526Z" fill="white"/>
</svg>